<?xml version="1.0" encoding="UTF-8"?>
<svg version="1.1" xmlns="http://www.w3.org/2000/svg" width="133" height="133">
<path d="M0 0 C1.00401855 0.00829834 2.00803711 0.01659668 3.04248047 0.02514648 C20.52267623 0.42069609 35.54504551 7.27668501 47.9609375 19.546875 C60.43263552 32.76901903 67.32139494 48.51774554 67.125 66.75 C67.11670166 67.75401855 67.10840332 68.75803711 67.09985352 69.79248047 C66.70430391 87.27267623 59.84831499 102.29504551 47.578125 114.7109375 C34.35598097 127.18263552 18.60725446 134.07139494 0.375 133.875 C-0.62901855 133.86670166 -1.63303711 133.85840332 -2.66748047 133.84985352 C-20.14767623 133.45430391 -35.17004551 126.59831499 -47.5859375 114.328125 C-60.05763552 101.10598097 -66.94639494 85.35725446 -66.75 67.125 C-66.74170166 66.12098145 -66.73340332 65.11696289 -66.72485352 64.08251953 C-66.32930391 46.60232377 -59.47331499 31.57995449 -47.203125 19.1640625 C-33.98098097 6.69236448 -18.23225446 -0.19639494 0 0 Z " fill="#D2D2D2" transform="translate(66.3125,-0.4375)"/>
<path d="M0 0 C1.13463064 4.88763969 1.56442841 7.79534263 -1.0625 12.1875 C-3.60252038 15.80898565 -6.51546596 18.30740551 -10 21 C-10.33 21.66 -10.66 22.32 -11 23 C-17.42857143 24.28571429 -17.42857143 24.28571429 -20 23 C-20.66744236 18.04053247 -21.06401486 13.78129851 -18.4296875 9.37109375 C-13.13804959 3.26458384 -8.39364973 -0.59954641 0 0 Z " fill="#F9F9F9" transform="translate(113,91)"/>
<path d="M0 0 C0.85883109 2.39512522 1.17516838 3.5616433 0.21484375 5.96484375 C-2.74587086 10.53720118 -5.69424777 13.67282782 -10 17 C-10.33 17.66 -10.66 18.32 -11 19 C-13.32156597 19.40729228 -15.6568787 19.74438677 -18 20 C-18 19.34 -18 18.68 -18 18 C-17.34 18 -16.68 18 -16 18 C-16 17.34 -16 16.68 -16 16 C-14.35 16 -12.7 16 -11 16 C-10.7421875 15.4225 -10.484375 14.845 -10.21875 14.25 C-8.49064852 11.05965881 -6.10391733 8.65509676 -3.65625 6 C-2.06105306 4.07372445 -1.01567082 2.27510263 0 0 Z " fill="#E7E7E7" transform="translate(113,95)"/>
<path d="M0 0 C0.66 0.99 1.32 1.98 2 3 C-8.86574353 15.74413004 -8.86574353 15.74413004 -14 19 C-14.99 18.67 -15.98 18.34 -17 18 C-17 17.34 -17 16.68 -17 16 C-16.01 16 -15.02 16 -14 16 C-13.67 15.01 -13.34 14.02 -13 13 C-11.58203125 11.640625 -11.58203125 11.640625 -9.8125 10.25 C-6.07775116 7.17886356 -3.03178992 3.75364466 0 0 Z " fill="#CACACA" transform="translate(116,98)"/>
<path d="M0 0 C-2.75890384 2.11306953 -5.58099132 4.05313994 -8.5 5.9375 C-13.26488072 8.93135437 -13.26488072 8.93135437 -17 13 C-17.61085537 16.32810857 -17.87104705 19.62143263 -18 23 C-18.33 23 -18.66 23 -19 23 C-19.66744236 18.04053247 -20.06401486 13.78129851 -17.4296875 9.37109375 C-12.60239979 3.80044044 -7.78648269 -0.68704259 0 0 Z " fill="#E6E6E6" transform="translate(112,91)"/>
<path d="M0 0 C0.33 0 0.66 0 1 0 C1 1.65 1 3.3 1 5 C-0.98 5.99 -0.98 5.99 -3 7 C-3 3.4833494 -2.23600438 2.59376508 0 0 Z " fill="#D8D8D8" transform="translate(92,103)"/>
</svg>
